<svg xmlns="http://www.w3.org/2000/svg" width="102.396" height="46" viewBox="0 0 102.396 46">
  <g id="Group_124" data-name="Group 124" transform="translate(132.198 365.969)">
    <g id="Group_123" data-name="Group 123">
      <rect id="Rectangle_125" data-name="Rectangle 125" width="102.396" height="45.999" transform="translate(-132.198 -365.969)" fill="#10295b"/>
      <rect id="Rectangle_126" data-name="Rectangle 126" width="2.023" height="45.986" transform="translate(-71.106 -365.956)" fill="#fff"/>
      <rect id="Rectangle_127" data-name="Rectangle 127" width="6.019" height="45.986" transform="translate(-69.082 -365.956)" fill="#ca001c"/>
      <path id="Path_184" data-name="Path 184" d="M85.114,57.224l1.62,5.032h7.709L128.41,31.09V17.5Z" transform="translate(-158.215 -382.227)" fill="#ca001c"/>
      <path id="Path_185" data-name="Path 185" d="M126.133,16.846,83.627,55.853l.753,3.852,45.365-41.63V16.846Z" transform="translate(-159.549 -382.814)" fill="#fff"/>
      <rect id="Rectangle_128" data-name="Rectangle 128" width="102.381" height="10.327" transform="translate(-132.183 -330.298)" fill="#ca001c"/>
      <rect id="Rectangle_129" data-name="Rectangle 129" width="102.366" height="4.15" transform="translate(-132.168 -334.481)" fill="#fff"/>
      <path id="Path_186" data-name="Path 186" d="M54.012,16.846l58.151,46h16.811l-58.147-46Z" transform="translate(-186.125 -382.814)" fill="#ca001c"/>
      <path id="Path_187" data-name="Path 187" d="M62.882,16.846l58.149,46h5.624l-58.145-46Z" transform="translate(-178.165 -382.814)" fill="#fff"/>
    </g>
  </g>
</svg>
